<svg xmlns="http://www.w3.org/2000/svg" width="100px" viewBox="0 0 73.323 64" height="100px" >
  <defs>
    <linearGradient id="A" x1="31.52" y1="64.56" x2="31.52" y2="1.51" gradientUnits="userSpaceOnUse">
      <stop offset=".18" stop-color="#0055CC"/>
      <stop offset="1" stop-color="#0055CC"/>
    </linearGradient>
  </defs>

  <!-- Background Blue Box -->
  <path
    d="M55.16 1.5H7.88a7.88 7.88 0 0 0-5.572 2.308A7.88 7.88 0 0 0 0 9.39v47.28a7.88 7.88 0 0 0 7.88 7.88h47.28A7.88 7.88 0 0 0 63 56.67V9.4a7.88 7.88 0 0 0-7.84-7.88z"
    fill="url(#A)"
    transform="matrix(1.163111 0 0 1.163111 .023263 -6.417545)"
  />

  <!-- Left White Line -->
  <path
    class="line line-left"
    d="M27.42 49.26A3.78 3.78 0 0 1 23.64 53H12a3.78 3.78 0 0 1-3.8-3.74V13.5A3.78 3.78 0 0 1 12 9.71h11.64a3.78 3.78 0 0 1 3.78 3.78z"
    fill="white"
    transform="matrix(1.163111 0 0 1.163111 .023263 -6.417545)"
  />

  <!-- Right White Line -->
  <path
    class="line line-right"
    d="M54.85 33.5a3.78 3.78 0 0 1-3.78 3.78H39.4a3.78 3.78 0 0 1-3.78-3.78v-20a3.78 3.78 0 0 1 3.78-3.79h11.67a3.78 3.78 0 0 1 3.78 3.78z"
    fill="white"
    transform="matrix(1.163111 0 0 1.163111 .023263 -6.417545)"
  />
</svg>
